# xmcd CD database file
#
# Track frame offsets:
#	150
#	14369
#	30702
#	43097
#	60156
#	76488
#	95191
#	117134
#	136486
#	155086
#	175229
#	191796
#	213666
#	233365
#	253360
#	269552
#
# Disc length: 3798 seconds
#
# Revision: 2
# Processed by: cddbd v1.5.2PL0 Copyright (c) Steve Scherf et al.
# Submitted via: CDex 1.70beta2
#
DISCID=e70ed410
DTITLE=Ayla Dikmen - Seninle Sonsuza Kadar
DYEAR=2007
DGENRE=Pop
TTITLE0=Aşk defteri
TTITLE1=Anlamazdın
TTITLE2=Anlamadın mı
TTITLE3=Nereye
TTITLE4=Zehir gibi aşkın var
TTITLE5=Onu bunu bilmem kararlıyım
TTITLE6=İlk ve son aşkım olacaksın (Yaşar düet)
TTITLE7=Nereye (Remix-Ozan Rap-Behçet Türkekul)
TTITLE8=Alyanaklım (Emre Altuğ)
TTITLE9=Sensiz yaşamam (Deniz Seki)
TTITLE10=Kim Dinler Sizi
TTITLE11=Yolcu Yolunda Gerek
TTITLE12=Olacak, Olacak
TTITLE13=Zehir Gibi Aşkın Var (Remix-Can Hatipoğlu)
TTITLE14=Nereye (Remix-Can Hatipoğlu)
TTITLE15=Yanan Mum (Enstrümantal-Belgesel Müziği)
EXTD=YEAR: 2007
EXTT0=
EXTT1=
EXTT2=
EXTT3=
EXTT4=
EXTT5=
EXTT6=
EXTT7=
EXTT8=
EXTT9=
EXTT10=
EXTT11=
EXTT12=
EXTT13=
EXTT14=
EXTT15=
PLAYORDER=
